<?xml version="1.0" encoding="utf-8"?>
<!-- Generator: Adobe Illustrator 16.0.0, SVG Export Plug-In . SVG Version: 6.00 Build 0)  -->
<!DOCTYPE svg PUBLIC "-//W3C//DTD SVG 1.1//EN" "http://www.w3.org/Graphics/SVG/1.1/DTD/svg11.dtd">
<svg version="1.1" id="Layer_1" xmlns="http://www.w3.org/2000/svg" xmlns:xlink="http://www.w3.org/1999/xlink" x="0px" y="0px"
	 width="254.502px" height="52.305px" viewBox="0 0 254.502 52.305" enable-background="new 0 0 254.502 52.305"
	 xml:space="preserve">
<g>
	<g>
		<g>
			<path fill="#FFFFFF" d="M111.575,37.682l4.79-27.169h12.981c6.113,0,10.729,1.434,9.777,6.83
				c-0.492,2.792-2.664,4.83-4.592,5.925c2.811,0.754,3.949,3.283,3.43,6.226c-1.07,6.076-6.084,8.189-13.141,8.189H111.575z
				 M122.483,26.323l-0.885,5.019h3.887c2.188,0,3.929-0.453,4.289-2.49c0.418-2.378-1.63-2.529-4.46-2.529H122.483z
				 M124.153,16.852l-0.799,4.528h3.698c1.773,0,3.196-0.792,3.475-2.377c0.373-2.113-1.355-2.151-3.243-2.151H124.153z"/>
			<path fill="#FFFFFF" d="M169.463,23.946c-1.631,9.246-8.773,14.453-16.813,14.453c-8.527,0-13.295-5.283-11.664-14.528
				c1.504-8.528,8.254-14.075,16.707-14.075C167.393,9.795,170.727,16.776,169.463,23.946z M149.879,23.946
				c-0.613,3.472-0.32,7.811,3.943,7.811c3.848,0,5.943-3.321,6.734-7.811c0.652-3.698-0.164-7.623-4.109-7.509
				C152.411,16.437,150.485,20.512,149.879,23.946z"/>
			<path fill="#FFFFFF" d="M166.848,37.682l14.525-27.169h9.057l4.945,27.169h-8.867l-0.424-3.586h-8.867l-1.652,3.586H166.848z
				 M184.383,18.701l-4.471,9.735h5.623L184.383,18.701z"/>
			<path fill="#FFFFFF" d="M207.252,28.209l-1.67,9.473h-8.904l4.789-27.169h12.83c9.057,0,11.605,2.453,10.674,7.735
				c-0.553,3.132-2.414,5.773-5.736,6.642c2.682,1.057,4.297,1.736,3.332,7.207c-0.625,3.548-0.951,4.756,0.105,4.756l-0.146,0.83
				h-9.018c-0.121-0.604-0.041-2.34,0.385-4.755c0.625-3.548,0.229-4.718-3.924-4.718H207.252z M208.305,22.248h3.508
				c2.756,0,4.348-0.679,4.68-2.566c0.34-1.924-1.012-2.83-3.086-2.83h-4.15L208.305,22.248z"/>
			<path fill="#FFFFFF" d="M225.594,37.682l4.791-27.169h11.924c8.754,0,13.469,4.075,11.893,13.019
				c-1.803,10.226-8.193,14.151-16.91,14.151H225.594z M235.618,31.342h1.887c4.15,0,6.801-2.189,7.705-7.321
				c0.998-5.66-0.584-7.169-5.34-7.169h-1.697L235.618,31.342z"/>
		</g>
	</g>
	<g>
		<g>
			<polygon fill="#EB0029" points="107.479,23.555 109.599,10.461 100.856,10.461 97.19,33.479 			"/>
			<g>
				<polygon fill="#EB0029" points="113.857,29.332 113.573,28.828 115.823,26.271 121.217,20.149 114.687,20.149 96.532,37.517 
					96.502,37.684 105.246,37.684 106.296,31.207 106.495,31.207 108.971,37.684 113.029,37.684 118.601,37.684 				"/>
			</g>
		</g>
		<g>
			<g>
				<polygon fill="#EB0029" points="81.975,24.43 82.721,19.709 73.979,19.709 71.658,34.353 				"/>
				<path fill="#EB0029" d="M90.926,19.332l-19.09,18.367h8.032l0.973-6.124c0.427,4.245,3.769,6.532,8.622,6.532
					c1.526,0,3.115-0.408,4.538-0.849l1.542-7.388c-1.13,0.711-2.25,1.391-3.607,1.391c-1.422,0-2.393-1.153-2.168-2.574
					c0.261-1.629,1.575-2.674,3.172-2.674c1.251,0,2.188,0.713,2.983,1.488l1.148-7.282c-1.667-0.576-3.514-0.916-5.344-0.916
					C91.458,19.304,91.188,19.311,90.926,19.332z"/>
			</g>
			<g>
				<path fill="#EB0029" d="M81.635,9.84c-0.52-0.164-1.104-0.249-1.741-0.249c-2.744,0-5.063,1.589-5.475,4.198
					c-0.171,1.082,0.002,1.938,0.419,2.594L81.635,9.84z"/>
				<path fill="#EB0029" d="M76.99,17.832c0.492,0.129,1.017,0.191,1.567,0.191c2.511,0,5.019-1.286,5.482-4.234
					c0.149-0.94,0.007-1.742-0.363-2.394L76.99,17.832z"/>
			</g>
		</g>
		<g>
			<g>
				<path fill="#EB0029" d="M71.381,19.709h-8.304l-1.472,9.281c-0.007,0.049-0.014,0.101-0.025,0.147L71.381,19.709z"/>
				<path fill="#EB0029" d="M49.812,29.871c-0.567,3.579,1.018,5.916,3.572,7.151l6.11-5.878c-1.13-0.144-1.024-1.177-0.87-2.154
					l1.468-9.281h-8.114c0-0.014,0-0.033,0-0.049c0-3.488-1.048-6.76-2.876-9.598l-8.543,8.219c0.08,0.492,0.122,0.994,0.122,1.508
					c0,5.65-5.027,10.226-11.233,10.226c-0.35,0-0.694-0.019-1.036-0.045l-8.021,7.714c2.764,1.047,5.811,1.633,9.014,1.633
					c9.371,0,17.402-4.971,20.817-12.047L49.812,29.871z"/>
				<path fill="#EB0029" d="M56.14,37.887c0.813,0.146,1.664,0.221,2.531,0.221c5.22,0,10.568-2.545,11.468-8.236l1.02-6.431
					L56.14,37.887z"/>
			</g>
			<path fill="#EB0029" d="M29.404,0C16.938,0,6.834,8.804,6.834,19.66c0,4.734,1.918,9.067,5.117,12.459l-7.027,6.771l2.054,0.752
				l-3.474,3.921l2.344,0.656L0,50.149l15.014-6.586l-2.299-0.817l5.719-3.855L16.09,38.3l15.673-14.918H21.017l-1.397,1.348
				c-0.891-1.465-1.406-3.146-1.406-4.94c0-5.651,5.03-10.233,11.234-10.233c4.561,0,8.486,2.482,10.244,6.038l7.889-7.59
				C43.47,3.152,36.857,0,29.404,0z"/>
		</g>
	</g>
</g>
<g>
	<g>
		<g>
			<path fill="#FFFFFF" d="M57.526,44.502c0.346-1.624,1.4-2.662,3.125-2.662c1.726,0,2.34,1.038,1.995,2.662l-0.568,2.672
				c-0.124,0.586-0.679,2.029-1.185,2.232l0.018,0.023c0.156-0.045,0.58-0.182,0.749-0.182h0.812L62.28,50.15h-3.383
				c-1.105,0-2.557-0.067-1.938-2.977L57.526,44.502z M61.009,47.219l0.585-2.751c0.361-1.702-0.8-1.759-1.126-1.759
				c-0.327,0-1.512,0.057-1.874,1.759l-0.584,2.751c-0.288,1.354-0.152,2.098,1.065,2.098S60.722,48.572,61.009,47.219z"/>
			<path fill="#FFFFFF" d="M67.738,44.457h0.925l-0.959,4.51c-0.083,0.395-0.145,0.789-0.194,1.184h-0.981l0.146-0.688h-0.034
				c-0.415,0.52-1.016,0.801-1.613,0.801c-0.992,0-1.429-0.496-1.223-1.466l0.923-4.341h0.925l-0.839,3.945
				c-0.146,0.688,0.071,1.15,0.726,1.15c0.496,0,1.195-0.371,1.396-1.318L67.738,44.457z"/>
			<path fill="#FFFFFF" d="M70.213,50.15h-0.925l1.21-5.693h0.925L70.213,50.15z M70.962,42.01h1.037l-0.211,0.992h-1.037
				L70.962,42.01z"/>
			<path fill="#FFFFFF" d="M75.698,46.283C75.92,45.348,75.51,45.1,75.16,45.1c-0.71,0-1.267,0.338-1.598,1.895
				c-0.393,1.849-0.297,2.514,0.661,2.514c0.215,0,0.905-0.225,1.09-1.252h0.97c-0.307,1.602-1.588,2.008-2.22,2.008
				c-1.207,0-2.089-0.361-1.555-2.875c0.355-1.67,0.839-3.045,2.813-3.045c1.139,0,1.663,0.665,1.336,1.939H75.698z"/>
			<path fill="#FFFFFF" d="M78.522,50.15h-0.925l1.73-8.141h0.924l-1.042,4.904h0.022l2.259-2.457h1.128l-2.414,2.446l1.543,3.247
				h-1.173l-1.352-3.191H79.2L78.522,50.15z"/>
			<path fill="#FFFFFF" d="M86.605,50.15h-1.037l1.729-8.141h1.037L86.605,50.15z"/>
			<path fill="#FFFFFF" d="M91.752,50.15l0.839-3.946c0.129-0.608,0.021-1.104-0.769-1.104c-1.016,0-1.354,0.902-1.519,1.68
				l-0.717,3.371h-0.925l0.959-4.51c0.083-0.395,0.145-0.789,0.194-1.184h0.981l-0.155,0.732h0.045
				c0.497-0.643,0.969-0.846,1.702-0.846c1.218,0,1.366,0.732,1.127,1.86l-0.839,3.946H91.752z"/>
			<path fill="#FFFFFF" d="M95.802,44.457l0.232-1.094l1.014-0.418l-0.321,1.512h1.24l-0.148,0.698h-1.24l-0.74,3.484
				c-0.077,0.36-0.175,0.823,0.671,0.823c0.067,0,0.219-0.022,0.427-0.045l-0.151,0.711c-0.309,0.021-0.628,0.09-0.933,0.09
				c-0.879,0-1.197-0.361-1.059-1.016l0.86-4.048h-0.936l0.148-0.698H95.802z"/>
			<path fill="#FFFFFF" d="M99.146,47.603c-0.338,1.59,0.023,1.905,0.745,1.905c0.631,0,1.066-0.508,1.222-1.082h1.016
				c-0.28,1.263-1.181,1.838-2.376,1.838c-1.206,0-2.088-0.361-1.554-2.875c0.354-1.67,0.839-3.045,2.812-3.045
				c1.624,0,1.841,0.891,1.44,2.773l-0.103,0.485H99.146z M101.515,46.903c0.353-1.657-0.066-1.86-0.743-1.86
				c-0.587,0-1.131,0.281-1.478,1.86H101.515z"/>
			<path fill="#FFFFFF" d="M105.437,45.313h0.022c0.568-0.868,1.063-0.97,1.966-0.97l-0.204,0.959
				c-0.076-0.012-0.164-0.023-0.241-0.035c-0.076-0.011-0.152-0.021-0.243-0.021c-1.025,0-1.45,0.777-1.613,1.545l-0.714,3.359
				h-0.925l1.21-5.693h0.925L105.437,45.313z"/>
			<path fill="#FFFFFF" d="M110.129,50.15l0.839-3.946c0.129-0.608,0.021-1.104-0.769-1.104c-1.016,0-1.354,0.902-1.519,1.68
				l-0.717,3.371h-0.925l0.959-4.51c0.083-0.395,0.145-0.789,0.194-1.184h0.981l-0.155,0.732h0.045
				c0.497-0.643,0.969-0.846,1.702-0.846c1.218,0,1.366,0.732,1.127,1.86l-0.839,3.946H110.129z"/>
			<path fill="#FFFFFF" d="M115.854,49.328h-0.022c-0.421,0.654-0.921,0.936-1.632,0.936c-1.206,0-1.391-0.778-1.158-1.872
				c0.367-1.726,2.075-1.804,3.364-1.771c0.184-0.756,0.369-1.578-0.623-1.578c-0.62,0-1.035,0.417-1.106,1.015h-1.003
				c0.315-1.274,1.085-1.714,2.292-1.714c1.466,0,1.688,0.756,1.485,1.714l-0.582,2.74c-0.096,0.45-0.149,0.913-0.175,1.353h-1.015
				L115.854,49.328z M113.951,48.459c-0.117,0.553,0.048,1.049,0.668,1.049c0.564,0,1.338-0.35,1.638-2.188
				C115.375,47.332,114.208,47.253,113.951,48.459z"/>
			<path fill="#FFFFFF" d="M119.791,44.457l0.232-1.094l1.014-0.418l-0.321,1.512h1.24l-0.148,0.698h-1.24l-0.74,3.484
				c-0.077,0.36-0.175,0.823,0.671,0.823c0.067,0,0.219-0.022,0.427-0.045l-0.151,0.711c-0.309,0.021-0.628,0.09-0.933,0.09
				c-0.879,0-1.197-0.361-1.059-1.016l0.86-4.048h-0.936l0.148-0.698H119.791z"/>
			<path fill="#FFFFFF" d="M122.684,50.15h-0.925l1.21-5.693h0.925L122.684,50.15z M123.433,42.01h1.037l-0.211,0.992h-1.037
				L123.433,42.01z"/>
			<path fill="#FFFFFF" d="M124.89,47.389c0.354-1.67,0.838-3.045,2.812-3.045c1.973,0,1.874,1.375,1.518,3.045
				c-0.534,2.514-1.569,2.875-2.776,2.875C125.237,50.264,124.355,49.902,124.89,47.389z M128.334,46.994
				c0.33-1.557-0.083-1.895-0.793-1.895c-0.711,0-1.268,0.338-1.598,1.895c-0.394,1.849-0.298,2.514,0.661,2.514
				C127.563,49.508,127.94,48.843,128.334,46.994z"/>
			<path fill="#FFFFFF" d="M133.352,50.15l0.838-3.946c0.129-0.608,0.021-1.104-0.768-1.104c-1.016,0-1.354,0.902-1.52,1.68
				l-0.717,3.371h-0.924l0.959-4.51c0.082-0.395,0.145-0.789,0.193-1.184h0.982l-0.156,0.732h0.045
				c0.498-0.643,0.969-0.846,1.703-0.846c1.217,0,1.365,0.732,1.127,1.86l-0.84,3.946H133.352z"/>
			<path fill="#FFFFFF" d="M139.077,49.328h-0.023c-0.42,0.654-0.92,0.936-1.631,0.936c-1.207,0-1.391-0.778-1.158-1.872
				c0.367-1.726,2.074-1.804,3.363-1.771c0.184-0.756,0.369-1.578-0.623-1.578c-0.619,0-1.035,0.417-1.105,1.015h-1.004
				c0.316-1.274,1.086-1.714,2.293-1.714c1.465,0,1.688,0.756,1.484,1.714l-0.582,2.74c-0.096,0.45-0.148,0.913-0.174,1.353h-1.016
				L139.077,49.328z M137.174,48.459c-0.117,0.553,0.047,1.049,0.668,1.049c0.564,0,1.338-0.35,1.637-2.188
				C138.598,47.332,137.43,47.253,137.174,48.459z"/>
			<path fill="#FFFFFF" d="M142.6,50.15h-0.924l1.729-8.141h0.926L142.6,50.15z"/>
			<path fill="#FFFFFF" d="M147.59,47.693c-0.58,0-0.967-0.49-0.842-1.07c0.125-0.589,0.721-1.079,1.301-1.079
				c0.59,0,0.975,0.49,0.85,1.079C148.774,47.203,148.178,47.693,147.59,47.693z"/>
			<path fill="#FFFFFF" d="M153.145,44.502c0.346-1.624,1.4-2.662,3.125-2.662s2.34,1.038,1.994,2.662l-0.568,2.672
				c-0.123,0.586-0.678,2.029-1.184,2.232l0.018,0.023c0.156-0.045,0.58-0.182,0.748-0.182h0.813l-0.191,0.902h-3.383
				c-1.105,0-2.557-0.067-1.939-2.977L153.145,44.502z M156.627,47.219l0.584-2.751c0.361-1.702-0.799-1.759-1.125-1.759
				c-0.328,0-1.512,0.057-1.875,1.759l-0.584,2.751c-0.287,1.354-0.152,2.098,1.066,2.098
				C155.911,49.316,156.34,48.572,156.627,47.219z"/>
			<path fill="#FFFFFF" d="M163.356,44.457h0.926l-0.959,4.51c-0.084,0.395-0.145,0.789-0.195,1.184h-0.98l0.146-0.688h-0.035
				c-0.414,0.52-1.016,0.801-1.613,0.801c-0.992,0-1.428-0.496-1.223-1.466l0.924-4.341h0.924l-0.838,3.945
				c-0.146,0.688,0.07,1.15,0.725,1.15c0.496,0,1.195-0.371,1.396-1.318L163.356,44.457z"/>
			<path fill="#FFFFFF" d="M165.831,50.15h-0.924l1.209-5.693h0.926L165.831,50.15z M166.581,42.01h1.037l-0.211,0.992h-1.037
				L166.581,42.01z"/>
			<path fill="#FFFFFF" d="M171.317,46.283c0.221-0.936-0.189-1.184-0.539-1.184c-0.709,0-1.266,0.338-1.598,1.895
				c-0.393,1.849-0.297,2.514,0.662,2.514c0.215,0,0.904-0.225,1.09-1.252h0.969c-0.307,1.602-1.588,2.008-2.219,2.008
				c-1.207,0-2.09-0.361-1.555-2.875c0.355-1.67,0.838-3.045,2.813-3.045c1.139,0,1.662,0.665,1.336,1.939H171.317z"/>
			<path fill="#FFFFFF" d="M174.141,50.15h-0.926l1.73-8.141h0.924l-1.041,4.904h0.021l2.26-2.457h1.127l-2.414,2.446l1.543,3.247
				h-1.172l-1.352-3.191h-0.023L174.141,50.15z"/>
			<path fill="#FFFFFF" d="M179.635,47.727l-0.051,0.236c-0.234,1.105,0.391,1.455,1.057,1.455c0.822,0,1.527-0.35,1.734-1.319
				c0.383-1.804-3.314-1.601-2.793-4.048c0.307-1.443,1.494-2.211,2.859-2.211c1.488,0,2.17,0.723,1.75,2.38h-1.082
				c0.199-0.892,0.043-1.478-0.939-1.478c-0.619,0-1.318,0.316-1.504,1.195c-0.381,1.793,3.326,1.533,2.779,4.116
				c-0.365,1.714-1.666,2.267-3.008,2.267c-2.406,0.022-2.018-1.816-1.828-2.594H179.635z"/>
			<path fill="#FFFFFF" d="M190.678,42.01l-0.191,0.902h-2.143l-1.537,7.238h-1.037l1.537-7.238h-2.143l0.191-0.902H190.678z"/>
			<path fill="#FFFFFF" d="M193.1,42.01h1.318l0.92,8.141h-1.16l-0.176-1.939h-3.145l-1.021,1.939h-1.049L193.1,42.01z
				 M193.528,42.968h-0.023l-2.197,4.341h2.605L193.528,42.968z"/>
			<path fill="#FFFFFF" d="M202.163,42.01l-0.191,0.902h-2.143l-1.537,7.238h-1.037l1.537-7.238h-2.143l0.191-0.902H202.163z"/>
			<path fill="#FFFFFF" d="M204.792,47.693c-0.582,0-0.967-0.49-0.844-1.07c0.127-0.589,0.721-1.079,1.303-1.079
				c0.588,0,0.973,0.49,0.848,1.079C205.975,47.203,205.379,47.693,204.792,47.693z"/>
			<path fill="#FFFFFF" d="M210.563,47.727l-0.051,0.236c-0.234,1.105,0.391,1.455,1.057,1.455c0.822,0,1.527-0.35,1.734-1.319
				c0.383-1.804-3.314-1.601-2.793-4.048c0.307-1.443,1.494-2.211,2.859-2.211c1.488,0,2.17,0.723,1.75,2.38h-1.082
				c0.199-0.892,0.043-1.478-0.939-1.478c-0.619,0-1.318,0.316-1.504,1.195c-0.381,1.793,3.326,1.533,2.779,4.116
				c-0.365,1.714-1.666,2.267-3.008,2.267c-2.406,0.022-2.018-1.816-1.828-2.594H210.563z"/>
			<path fill="#FFFFFF" d="M216.934,44.457l0.232-1.094l1.014-0.418l-0.322,1.512h1.24l-0.148,0.698h-1.24l-0.74,3.484
				c-0.076,0.36-0.174,0.823,0.672,0.823c0.066,0,0.219-0.022,0.426-0.045l-0.15,0.711c-0.309,0.021-0.629,0.09-0.934,0.09
				c-0.879,0-1.197-0.361-1.059-1.016l0.861-4.048h-0.936l0.148-0.698H216.934z"/>
			<path fill="#FFFFFF" d="M220.278,47.603c-0.338,1.59,0.023,1.905,0.746,1.905c0.631,0,1.066-0.508,1.221-1.082h1.016
				c-0.279,1.263-1.18,1.838-2.375,1.838c-1.207,0-2.088-0.361-1.555-2.875c0.355-1.67,0.84-3.045,2.813-3.045
				c1.623,0,1.84,0.891,1.439,2.773l-0.102,0.485H220.278z M222.647,46.903c0.354-1.657-0.066-1.86-0.742-1.86
				c-0.588,0-1.131,0.281-1.479,1.86H222.647z"/>
			<path fill="#FFFFFF" d="M226.569,45.313h0.023c0.568-0.868,1.063-0.97,1.965-0.97l-0.203,0.959
				c-0.076-0.012-0.164-0.023-0.242-0.035c-0.076-0.011-0.152-0.021-0.242-0.021c-1.025,0-1.451,0.777-1.613,1.545l-0.715,3.359
				h-0.924l1.209-5.693h0.926L226.569,45.313z"/>
			<path fill="#FFFFFF" d="M229.063,50.15h-0.926l1.73-8.141h0.924L229.063,50.15z"/>
			<path fill="#FFFFFF" d="M231.762,50.15h-0.926l1.211-5.693h0.924L231.762,50.15z M232.51,42.01h1.037l-0.211,0.992h-1.037
				L232.51,42.01z"/>
			<path fill="#FFFFFF" d="M236.667,50.15l0.838-3.946c0.129-0.608,0.021-1.104-0.768-1.104c-1.016,0-1.354,0.902-1.52,1.68
				L234.5,50.15h-0.924l0.959-4.51c0.082-0.395,0.145-0.789,0.193-1.184h0.982l-0.156,0.732h0.045
				c0.498-0.643,0.969-0.846,1.703-0.846c1.217,0,1.365,0.732,1.127,1.86l-0.84,3.946H236.667z"/>
			<path fill="#FFFFFF" d="M243.545,44.457h0.926l-1.332,6.27c-0.271,1.273-1.182,1.578-2.434,1.578
				c-0.947,0-1.703-0.474-1.402-1.522h1.039c-0.102,0.53,0.186,0.823,0.693,0.823c0.643,0,1.076-0.395,1.199-0.98l0.252-1.185
				h-0.033c-0.332,0.451-0.906,0.71-1.402,0.71c-1.545,0-1.566-1.33-1.207-3.021c0.555-2.616,1.91-2.785,2.373-2.785
				c0.598,0,1.016,0.26,1.158,0.812h0.021L243.545,44.457z M242.325,45.11c-1.049,0-1.352,1.263-1.512,2.019
				c-0.389,1.826-0.063,2.256,0.627,2.256c1.115,0,1.361-1.32,1.529-2.109C243.149,46.43,243.487,45.11,242.325,45.11z"/>
		</g>
	</g>
</g>
</svg>
